<?xml version="1.0" encoding="utf-8"?>
<!-- Generator: Adobe Illustrator 22.1.0, SVG Export Plug-In . SVG Version: 6.00 Build 0)  -->
<svg version="1.1" id="Warstwa_1" xmlns="http://www.w3.org/2000/svg" xmlns:xlink="http://www.w3.org/1999/xlink" x="0px" y="0px"
	 viewBox="0 0 24 24" style="enable-background:new 0 0 24 24;" xml:space="preserve">
<style type="text/css">
	.st0{fill:#8EC44C;}
</style>
<path class="st0" d="M18,10c-3.3,0-6,2.7-6,6s2.7,6,6,6s6-2.7,6-6S21.3,10,18,10z M18.5,18.5V19H18v-0.5c-0.5,0-1.1-0.1-1.5-0.4
	l0.2-0.8c0.5,0.2,1.1,0.4,1.6,0.3c0.6-0.1,0.7-0.7,0.1-1c-0.5-0.2-1.9-0.4-1.9-1.6c0-0.7,0.5-1.3,1.5-1.4V13h0.5v0.5
	c0.4,0,0.8,0.1,1.2,0.2l-0.2,0.8c-0.4-0.1-0.8-0.3-1.2-0.2c-0.7,0-0.8,0.7-0.3,1c0.9,0.4,2,0.7,2,1.8C20,17.9,19.3,18.4,18.5,18.5z
	 M10.6,13H8v-2h3.8C11.3,11.6,10.9,12.3,10.6,13z M10,16H8v-2h2.3C10.1,14.6,10,15.3,10,16z M12.7,10H8V8h7v0.6
	C14.2,8.9,13.4,9.4,12.7,10z M15,4H8V2h7V4z M15,7H8V5h7V7z M10.6,19H8v-2h2.1C10.2,17.7,10.3,18.4,10.6,19z M0,8h7v2H0V8z M0,11h7
	v2H0V11z M12.7,22H8v-2h3.1C11.5,20.8,12.1,21.4,12.7,22z M0,17h7v2H0V17z M0,20h7v2H0V20z M0,14h7v2H0V14z"/>
</svg>
