<?xml version="1.0" encoding="utf-8"?>
<!-- Generator: Adobe Illustrator 22.1.0, SVG Export Plug-In . SVG Version: 6.00 Build 0)  -->
<svg version="1.1" id="Warstwa_1" xmlns="http://www.w3.org/2000/svg" xmlns:xlink="http://www.w3.org/1999/xlink" x="0px" y="0px"
	 viewBox="0 0 24 24" style="enable-background:new 0 0 24 24;" xml:space="preserve">
<style type="text/css">
	.st0{fill:#8EC44C;}
</style>
<path class="st0" d="M3.5,16.3l1.1,2.2L7,18.9l-1.8,1.7L5.7,23l-2.2-1.2L1.3,23l0.4-2.4L0,18.9l2.4-0.3C2.4,18.5,3.5,16.3,3.5,16.3z
	 M12,16.3l1.1,2.2l2.4,0.3l-1.8,1.7l0.4,2.4L12,21.8L9.8,23l0.4-2.4l-1.8-1.7l2.4-0.3C10.9,18.5,12,16.3,12,16.3z M20.5,16.3
	l1.1,2.2l2.4,0.3l-1.8,1.7l0.4,2.4l-2.2-1.2L18.3,23l0.4-2.4L17,18.9l2.4-0.3C19.4,18.5,20.5,16.3,20.5,16.3z M19.5,13L19.5,13
	c0-4.9-2.3-2.8-2.3-6.7c0-1.5,1-2.3,2.2-2.3c1.9,0,3.2,1.8,1.4,5.1c-0.6,1.1,0.6,1.4,1.9,1.7c1.1,0.3,1.2,0.8,1.2,1.8V15h-4.5
	C19.5,15,19.5,13,19.5,13z M0,15v-2.5c0-0.9,0.1-1.5,1.2-1.8c1.3-0.3,2.5-0.6,1.9-1.7C1.3,5.8,2.6,4,4.5,4c1.3,0,2.2,0.8,2.2,2.3
	c0,3.9-2.3,1.8-2.2,6.7h0v2C4.5,15,0,15,0,15z M6,15v-2.6c0-1.3,0.1-2,1.6-2.3c1.7-0.4,3.3-0.7,2.5-2.2C7.8,3.5,9.5,1,12,1
	c2.5,0,4.2,2.4,1.9,6.8c-0.8,1.5,0.8,1.8,2.5,2.2c1.5,0.3,1.6,1.1,1.6,2.3l0,2.6H6z"/>
</svg>
