<?xml version="1.0" encoding="utf-8"?>
<!-- Generator: Adobe Illustrator 22.1.0, SVG Export Plug-In . SVG Version: 6.00 Build 0)  -->
<svg version="1.1" id="Warstwa_1" xmlns="http://www.w3.org/2000/svg" xmlns:xlink="http://www.w3.org/1999/xlink" x="0px" y="0px"
	 viewBox="0 0 24 24" style="enable-background:new 0 0 24 24;" xml:space="preserve">
<style type="text/css">
	.st0{fill:#8EC44C;}
</style>
<path class="st0" d="M9.7,4.1C9.5,4.6,9.5,5.2,9.5,5.8c0,0.3,0,0.6,0.1,0.9l0,0C9.1,6.6,8.1,7.3,8,7.3c-0.1,0,0-0.5,0.3-0.6
	c-0.1,0,0.5-0.3,0.8-0.5C8.4,6.4,7.8,6.6,7.2,6.9c0,0,0,0.1-0.1,0.2C6.9,7.2,6.8,7.8,6.6,7.8C6.2,7.9,6.2,7.4,5.7,8.1
	c0,0.1-0.2,0.1-0.3,0.1C4.2,9.4,3.3,11,3,12.8l0.1,0.1c0.1,0.1,0.1,0.6,0.1,0.7c0.1,0.4,0.4,0.6,0.6,1c0.1,0.2,0.3,0.7,0.3,1
	c0.1-0.1,0.9,0.7,1,0.8c0.3,0.4,0.6,0.9,0.1,1.3c-0.2,0.1,0.3,0.9,0,1.1L5,18.9c-0.1,0.1-0.2,0.2-0.2,0.3C6.3,20.9,8.5,22,11,22
	c4.2,0,7.7-3.3,8-7.4c0.7-0.6,1.3-1.2,1.9-1.8c0,0.4,0.1,0.8,0.1,1.2c0,5.5-4.5,10-10,10C5.4,24,1,19.5,1,14C1,8.9,4.8,4.7,9.7,4.1z
	 M16.6,15.9L15.8,17c-0.1,0.3,0.1,0.9,0.1,1.2c0,0.4-0.3,0.5-0.6,0.7c-0.3,0.2-0.2,0.6-0.5,0.8c-0.4,0.3-0.7,1.1-1.3,1.1
	c-0.2,0-0.9,0.3-1,0c-0.1-0.2-0.2-0.4-0.3-0.6c-0.1-0.2,0-0.4-0.1-0.6c-0.1-0.1-0.4-0.4-0.4-0.6c0-0.1,0.1-0.5,0.2-0.6
	c0.2-0.1,0-0.4,0-0.5c0-0.3-0.2-0.5-0.4-0.7c-0.3-0.2-0.2-0.4-0.1-0.8c0-0.2-0.1-0.4-0.3-0.3c-0.5,0.1-0.3-0.4-0.7-0.3
	c-0.2,0-0.4,0.2-0.7,0.2c-0.3,0.1-0.6-0.1-0.9-0.1c-1.2-0.1-1.5-1.5-1.2-2.4c0-0.2-0.1-0.4,0-0.6c0.1-0.3,0.4-0.6,0.6-0.8
	C8.4,12,8.5,12,8.7,11.9c0.2-0.1,0.2-0.5,0.5-0.6C9.5,11,9.9,11,10.4,11c0.2,0,0.7-0.1,1-0.1c0.1,0.1,0.3,0.3,0.5,0.6
	c1.1,1.3,2.5,2.5,4,3.8C15.9,15.3,16.6,15.9,16.6,15.9z M10.3,9.3c0.1,0.3,0.3,0.6,0.5,0.8l-0.1,0.2c-0.1,0-0.2,0.1-0.3,0.2
	l-0.1,0.3c-0.1,0.1-0.6,0.2-0.6,0.2c0-0.1-0.4-0.1-0.4-0.3c0-0.1,0.2-0.6,0.1-0.7c0-0.2,0.9,0.2,0.9-0.2c0-0.2,0-0.4-0.3-0.4
	C10,9.3,10.3,9.3,10.3,9.3z M12.6,6.8h2.1V5.3h-2.1c0.3-1.8,1.7-3.3,3.6-3.6v2.1h1.5V1.7C19.6,2,21,3.4,21.3,5.3h-2.1v1.5h2.1
	c-0.3,1.8-1.8,3.2-3.6,3.5v-2h-1.5v2C14.4,10,13,8.6,12.6,6.8z M17,14.3c3.4-2.9,6-5.2,6-8.5C23,2.6,20.3,0,17,0s-6,2.6-6,5.8
	C11,9.1,13.6,11.4,17,14.3z"/>
</svg>
