<?xml version="1.0" encoding="utf-8"?>
<!-- Generator: Adobe Illustrator 22.1.0, SVG Export Plug-In . SVG Version: 6.00 Build 0)  -->
<svg version="1.1" id="Warstwa_1" xmlns="http://www.w3.org/2000/svg" xmlns:xlink="http://www.w3.org/1999/xlink" x="0px" y="0px"
	 viewBox="0 0 24 24" style="enable-background:new 0 0 24 24;" xml:space="preserve">
<style type="text/css">
	.st0{fill:#8EC44C;}
</style>
<path class="st0" d="M3,18H1c-0.6,0-1-0.4-1-1v-2h15V6h4.7c1.1,0,1.6,0.6,1.9,1.1c0.6,0.9,1.5,2.4,2.1,3.4c0.2,0.3,0.3,0.7,0.3,1V16
	c0,1.1-0.7,2-2,2h-1c0,1.7-1.3,3-3,3s-3-1.3-3-3H9c0,1.7-1.3,3-3,3S3,19.7,3,18z M6,16.8c0.7,0,1.2,0.5,1.2,1.2S6.7,19.2,6,19.2
	S4.8,18.7,4.8,18S5.3,16.8,6,16.8z M18,16.8c0.7,0,1.2,0.5,1.2,1.2s-0.5,1.2-1.2,1.2s-1.2-0.5-1.2-1.2S17.3,16.8,18,16.8z M14,14H0
	V4c0-0.6,0.4-1,1-1h12c0.6,0,1,0.4,1,1V14z M17,8v3h4.7l-1.4-2.5C20.1,8.2,19.8,8,19.4,8C19.4,8,17,8,17,8z"/>
</svg>
